<mxfile host="65bd71144e">
    <diagram id="im0fCjMSKCxYscyRPefm" name="Page-1">
        <mxGraphModel dx="1133" dy="790" grid="1" gridSize="10" guides="1" tooltips="1" connect="1" arrows="1" fold="1" page="1" pageScale="1" pageWidth="850" pageHeight="1100" math="0" shadow="0">
            <root>
                <mxCell id="0"/>
                <mxCell id="1" parent="0"/>
                <mxCell id="38" value="Employees" style="html=1;labelBackgroundColor=none;verticalAlign=top;fillColor=#e3c800;strokeColor=#B09500;fontColor=#000000;" vertex="1" parent="1">
                    <mxGeometry x="20" y="120" width="170" height="560" as="geometry"/>
                </mxCell>
                <mxCell id="39" value="System" style="html=1;labelBackgroundColor=none;verticalAlign=top;fillColor=#e3c800;strokeColor=#B09500;fontColor=#000000;" vertex="1" parent="1">
                    <mxGeometry x="240" y="120" width="360" height="560" as="geometry"/>
                </mxCell>
                <mxCell id="40" value="HR" style="html=1;labelBackgroundColor=none;verticalAlign=top;fillColor=#e3c800;strokeColor=#B09500;fontColor=#000000;" vertex="1" parent="1">
                    <mxGeometry x="660" y="120" width="170" height="560" as="geometry"/>
                </mxCell>
                <mxCell id="97" style="edgeStyle=orthogonalEdgeStyle;rounded=0;orthogonalLoop=1;jettySize=auto;html=1;entryX=0.5;entryY=0;entryDx=0;entryDy=0;strokeColor=#99004D;" edge="1" parent="1" source="42" target="96">
                    <mxGeometry relative="1" as="geometry"/>
                </mxCell>
                <mxCell id="42" value="&lt;b&gt;&lt;font color=&quot;#1a1a1a&quot;&gt;Create account&lt;/font&gt;&lt;/b&gt;" style="whiteSpace=wrap;html=1;align=center;labelBackgroundColor=none;fillColor=#f5f5f5;strokeColor=#666666;gradientColor=#b3b3b3;" vertex="1" parent="1">
                    <mxGeometry x="55" y="260" width="100" height="40" as="geometry"/>
                </mxCell>
                <mxCell id="45" style="edgeStyle=orthogonalEdgeStyle;rounded=0;orthogonalLoop=1;jettySize=auto;html=1;entryX=1;entryY=0.5;entryDx=0;entryDy=0;fillColor=#1ba1e2;strokeColor=#99004D;" edge="1" parent="1" source="43" target="44">
                    <mxGeometry relative="1" as="geometry"/>
                </mxCell>
                <mxCell id="43" value="&lt;b&gt;&lt;font color=&quot;#1a1a1a&quot;&gt;Send Email&lt;/font&gt;&lt;/b&gt;" style="whiteSpace=wrap;html=1;align=center;labelBackgroundColor=none;fillColor=#f5f5f5;strokeColor=#666666;gradientColor=#b3b3b3;" vertex="1" parent="1">
                    <mxGeometry x="695" y="180" width="100" height="40" as="geometry"/>
                </mxCell>
                <mxCell id="59" style="edgeStyle=orthogonalEdgeStyle;rounded=0;orthogonalLoop=1;jettySize=auto;html=1;entryX=0.5;entryY=0;entryDx=0;entryDy=0;strokeColor=#99004D;" edge="1" parent="1" source="44" target="58">
                    <mxGeometry relative="1" as="geometry"/>
                </mxCell>
                <mxCell id="62" style="edgeStyle=orthogonalEdgeStyle;rounded=0;orthogonalLoop=1;jettySize=auto;html=1;entryX=1;entryY=0.5;entryDx=0;entryDy=0;strokeColor=#99004D;" edge="1" parent="1" source="44" target="61">
                    <mxGeometry relative="1" as="geometry"/>
                </mxCell>
                <mxCell id="44" value="&lt;font color=&quot;#000000&quot;&gt;&lt;br&gt;Email &lt;br&gt;exist?&lt;/font&gt;" style="rhombus;whiteSpace=wrap;html=1;labelBackgroundColor=none;verticalAlign=top;fillColor=#1ba1e2;strokeColor=#006EAF;fontStyle=1;fontColor=#ffffff;" vertex="1" parent="1">
                    <mxGeometry x="490" y="160" width="83.75" height="80" as="geometry"/>
                </mxCell>
                <mxCell id="50" style="edgeStyle=orthogonalEdgeStyle;rounded=0;orthogonalLoop=1;jettySize=auto;html=1;entryX=0.5;entryY=0;entryDx=0;entryDy=0;strokeColor=#99004D;" edge="1" parent="1" source="48" target="42">
                    <mxGeometry relative="1" as="geometry"/>
                </mxCell>
                <mxCell id="48" value="&lt;b&gt;&lt;font color=&quot;#1a1a1a&quot;&gt;Receive Email from HR&lt;/font&gt;&lt;/b&gt;" style="whiteSpace=wrap;html=1;align=center;labelBackgroundColor=none;fillColor=#f5f5f5;strokeColor=#666666;gradientColor=#b3b3b3;" vertex="1" parent="1">
                    <mxGeometry x="55" y="180" width="100" height="40" as="geometry"/>
                </mxCell>
                <mxCell id="53" style="edgeStyle=orthogonalEdgeStyle;rounded=0;orthogonalLoop=1;jettySize=auto;html=1;entryX=1;entryY=0.5;entryDx=0;entryDy=0;strokeColor=#99004D;" edge="1" parent="1" source="51" target="48">
                    <mxGeometry relative="1" as="geometry"/>
                </mxCell>
                <mxCell id="51" value="&lt;b&gt;&lt;font color=&quot;#1a1a1a&quot;&gt;Send out&lt;/font&gt;&lt;/b&gt;" style="whiteSpace=wrap;html=1;align=center;labelBackgroundColor=none;fillColor=#1ba1e2;strokeColor=#006EAF;fontColor=#ffffff;" vertex="1" parent="1">
                    <mxGeometry x="280" y="180" width="70" height="40" as="geometry"/>
                </mxCell>
                <mxCell id="57" style="edgeStyle=orthogonalEdgeStyle;rounded=0;orthogonalLoop=1;jettySize=auto;html=1;entryX=0;entryY=0.5;entryDx=0;entryDy=0;strokeColor=#99004D;" edge="1" parent="1" source="54">
                    <mxGeometry relative="1" as="geometry">
                        <mxPoint x="400.94000000000005" y="645" as="targetPoint"/>
                    </mxGeometry>
                </mxCell>
                <mxCell id="54" value="&lt;b&gt;&lt;font color=&quot;#1a1a1a&quot;&gt;Sign employment contract&lt;/font&gt;&lt;/b&gt;" style="whiteSpace=wrap;html=1;align=center;labelBackgroundColor=none;fillColor=#1ba1e2;strokeColor=#006EAF;fontColor=#ffffff;" vertex="1" parent="1">
                    <mxGeometry x="279.23" y="620" width="80" height="50" as="geometry"/>
                </mxCell>
                <mxCell id="65" style="edgeStyle=orthogonalEdgeStyle;rounded=0;orthogonalLoop=1;jettySize=auto;html=1;strokeColor=#99004D;" edge="1" parent="1">
                    <mxGeometry relative="1" as="geometry">
                        <mxPoint x="479.05999999999995" y="645" as="sourcePoint"/>
                        <mxPoint x="512.8199999999999" y="645" as="targetPoint"/>
                    </mxGeometry>
                </mxCell>
                <mxCell id="60" style="edgeStyle=orthogonalEdgeStyle;rounded=0;orthogonalLoop=1;jettySize=auto;html=1;entryX=0.5;entryY=1;entryDx=0;entryDy=0;strokeColor=#99004D;" edge="1" parent="1" source="58" target="43">
                    <mxGeometry relative="1" as="geometry"/>
                </mxCell>
                <mxCell id="58" value="&lt;b&gt;&lt;font color=&quot;#1a1a1a&quot;&gt;No&lt;/font&gt;&lt;/b&gt;" style="whiteSpace=wrap;html=1;align=center;labelBackgroundColor=none;fillColor=#a20025;strokeColor=#6F0000;fontColor=#ffffff;" vertex="1" parent="1">
                    <mxGeometry x="512.8199999999999" y="260" width="38.12" height="30" as="geometry"/>
                </mxCell>
                <mxCell id="63" style="edgeStyle=orthogonalEdgeStyle;rounded=0;orthogonalLoop=1;jettySize=auto;html=1;entryX=1;entryY=0.5;entryDx=0;entryDy=0;strokeColor=#99004D;" edge="1" parent="1" source="61" target="51">
                    <mxGeometry relative="1" as="geometry"/>
                </mxCell>
                <mxCell id="61" value="&lt;b&gt;&lt;font color=&quot;#1a1a1a&quot;&gt;Yes&lt;/font&gt;&lt;/b&gt;" style="whiteSpace=wrap;html=1;align=center;labelBackgroundColor=none;fillColor=#a20025;strokeColor=#6F0000;fontColor=#ffffff;" vertex="1" parent="1">
                    <mxGeometry x="400.94" y="185" width="38.12" height="30" as="geometry"/>
                </mxCell>
                <mxCell id="68" value="&lt;b&gt;&lt;font color=&quot;#1a1a1a&quot;&gt;End&lt;/font&gt;&lt;/b&gt;" style="whiteSpace=wrap;html=1;align=center;labelBackgroundColor=none;fillColor=#6a00ff;strokeColor=#3700CC;fontColor=#ffffff;" vertex="1" parent="1">
                    <mxGeometry x="512.8199999999999" y="630" width="38.12" height="30" as="geometry"/>
                </mxCell>
                <mxCell id="69" value="&lt;b&gt;&lt;font color=&quot;#1a1a1a&quot;&gt;View home &lt;br&gt;page&lt;/font&gt;&lt;/b&gt;" style="whiteSpace=wrap;html=1;align=center;labelBackgroundColor=none;fillColor=#1ba1e2;strokeColor=#006EAF;fontColor=#ffffff;" vertex="1" parent="1">
                    <mxGeometry x="400.94" y="625" width="78.12" height="40" as="geometry"/>
                </mxCell>
                <mxCell id="77" style="edgeStyle=orthogonalEdgeStyle;rounded=0;orthogonalLoop=1;jettySize=auto;html=1;entryX=0;entryY=0.5;entryDx=0;entryDy=0;strokeColor=#99004D;" edge="1" parent="1" source="70" target="74">
                    <mxGeometry relative="1" as="geometry"/>
                </mxCell>
                <mxCell id="105" style="edgeStyle=orthogonalEdgeStyle;rounded=0;orthogonalLoop=1;jettySize=auto;html=1;entryX=0.5;entryY=0;entryDx=0;entryDy=0;strokeColor=#99004D;" edge="1" parent="1" source="70" target="72">
                    <mxGeometry relative="1" as="geometry"/>
                </mxCell>
                <mxCell id="70" value="&lt;font color=&quot;#000000&quot;&gt;&lt;br&gt;&lt;br&gt;Username&lt;br&gt;exist?&lt;/font&gt;" style="rhombus;whiteSpace=wrap;html=1;labelBackgroundColor=none;verticalAlign=top;fillColor=#1ba1e2;strokeColor=#006EAF;fontStyle=1;fontColor=#ffffff;" vertex="1" parent="1">
                    <mxGeometry x="341" y="320" width="83.75" height="80" as="geometry"/>
                </mxCell>
                <mxCell id="122" style="edgeStyle=orthogonalEdgeStyle;rounded=0;orthogonalLoop=1;jettySize=auto;html=1;entryX=0.75;entryY=0;entryDx=0;entryDy=0;strokeColor=#99004D;" edge="1" parent="1" source="72" target="100">
                    <mxGeometry relative="1" as="geometry"/>
                </mxCell>
                <mxCell id="72" value="&lt;b&gt;&lt;font color=&quot;#1a1a1a&quot;&gt;No&lt;/font&gt;&lt;/b&gt;" style="whiteSpace=wrap;html=1;align=center;labelBackgroundColor=none;fillColor=#a20025;strokeColor=#6F0000;fontColor=#ffffff;" vertex="1" parent="1">
                    <mxGeometry x="363.82000000000005" y="420" width="38.12" height="30" as="geometry"/>
                </mxCell>
                <mxCell id="99" style="edgeStyle=orthogonalEdgeStyle;rounded=0;orthogonalLoop=1;jettySize=auto;html=1;entryX=0.75;entryY=0;entryDx=0;entryDy=0;strokeColor=#99004D;" edge="1" parent="1" source="74" target="96">
                    <mxGeometry relative="1" as="geometry">
                        <Array as="points">
                            <mxPoint x="532" y="310"/>
                            <mxPoint x="130" y="310"/>
                        </Array>
                    </mxGeometry>
                </mxCell>
                <mxCell id="74" value="&lt;b&gt;&lt;font color=&quot;#1a1a1a&quot;&gt;Yes&lt;/font&gt;&lt;/b&gt;" style="whiteSpace=wrap;html=1;align=center;labelBackgroundColor=none;fillColor=#a20025;strokeColor=#6F0000;fontColor=#ffffff;" vertex="1" parent="1">
                    <mxGeometry x="512.8199999999999" y="345" width="38.12" height="30" as="geometry"/>
                </mxCell>
                <mxCell id="113" style="edgeStyle=orthogonalEdgeStyle;rounded=0;orthogonalLoop=1;jettySize=auto;html=1;entryX=0;entryY=0.5;entryDx=0;entryDy=0;strokeColor=#99004D;" edge="1" parent="1" source="84" target="54">
                    <mxGeometry relative="1" as="geometry">
                        <Array as="points">
                            <mxPoint x="105" y="645"/>
                        </Array>
                    </mxGeometry>
                </mxCell>
                <mxCell id="84" value="&lt;b&gt;&lt;font color=&quot;#1a1a1a&quot;&gt;Login account&lt;/font&gt;&lt;/b&gt;" style="whiteSpace=wrap;html=1;align=center;labelBackgroundColor=none;fillColor=#f5f5f5;strokeColor=#666666;gradientColor=#b3b3b3;" vertex="1" parent="1">
                    <mxGeometry x="55" y="565" width="100" height="40" as="geometry"/>
                </mxCell>
                <mxCell id="98" style="edgeStyle=orthogonalEdgeStyle;rounded=0;orthogonalLoop=1;jettySize=auto;html=1;strokeColor=#99004D;" edge="1" parent="1" source="96" target="70">
                    <mxGeometry relative="1" as="geometry"/>
                </mxCell>
                <mxCell id="96" value="&lt;b&gt;&lt;font color=&quot;#1a1a1a&quot;&gt;Choose username&lt;/font&gt;&lt;/b&gt;" style="whiteSpace=wrap;html=1;align=center;labelBackgroundColor=none;fillColor=#f5f5f5;strokeColor=#666666;gradientColor=#b3b3b3;" vertex="1" parent="1">
                    <mxGeometry x="55" y="340" width="100" height="40" as="geometry"/>
                </mxCell>
                <mxCell id="106" style="edgeStyle=orthogonalEdgeStyle;rounded=0;orthogonalLoop=1;jettySize=auto;html=1;entryX=0;entryY=0.5;entryDx=0;entryDy=0;strokeColor=#99004D;" edge="1" parent="1" source="100" target="103">
                    <mxGeometry relative="1" as="geometry">
                        <Array as="points">
                            <mxPoint x="105" y="510"/>
                        </Array>
                    </mxGeometry>
                </mxCell>
                <mxCell id="100" value="&lt;b&gt;&lt;font color=&quot;#1a1a1a&quot;&gt;Choose password&lt;/font&gt;&lt;/b&gt;" style="whiteSpace=wrap;html=1;align=center;labelBackgroundColor=none;fillColor=#f5f5f5;strokeColor=#666666;gradientColor=#b3b3b3;" vertex="1" parent="1">
                    <mxGeometry x="55" y="420" width="100" height="55" as="geometry"/>
                </mxCell>
                <mxCell id="111" style="edgeStyle=orthogonalEdgeStyle;rounded=0;orthogonalLoop=1;jettySize=auto;html=1;entryX=0.5;entryY=0;entryDx=0;entryDy=0;strokeColor=#99004D;" edge="1" parent="1" source="103" target="109">
                    <mxGeometry relative="1" as="geometry"/>
                </mxCell>
                <mxCell id="117" style="edgeStyle=orthogonalEdgeStyle;rounded=0;orthogonalLoop=1;jettySize=auto;html=1;entryX=0;entryY=0.5;entryDx=0;entryDy=0;strokeColor=#99004D;" edge="1" parent="1" source="103" target="110">
                    <mxGeometry relative="1" as="geometry"/>
                </mxCell>
                <mxCell id="103" value="&lt;font color=&quot;#000000&quot;&gt;&lt;br&gt;&lt;br&gt;Password&lt;br&gt;valid?&lt;br&gt;&lt;/font&gt;" style="rhombus;whiteSpace=wrap;html=1;labelBackgroundColor=none;verticalAlign=top;fillColor=#1ba1e2;strokeColor=#006EAF;fontStyle=1;fontColor=#ffffff;" vertex="1" parent="1">
                    <mxGeometry x="341" y="470" width="83.75" height="80" as="geometry"/>
                </mxCell>
                <mxCell id="112" style="edgeStyle=orthogonalEdgeStyle;rounded=0;orthogonalLoop=1;jettySize=auto;html=1;entryX=1;entryY=0.5;entryDx=0;entryDy=0;strokeColor=#99004D;" edge="1" parent="1" source="109" target="84">
                    <mxGeometry relative="1" as="geometry"/>
                </mxCell>
                <mxCell id="109" value="&lt;b&gt;&lt;font color=&quot;#1a1a1a&quot;&gt;Yes&lt;/font&gt;&lt;/b&gt;" style="whiteSpace=wrap;html=1;align=center;labelBackgroundColor=none;fillColor=#a20025;strokeColor=#6F0000;fontColor=#ffffff;" vertex="1" parent="1">
                    <mxGeometry x="363.81999999999994" y="570" width="38.12" height="30" as="geometry"/>
                </mxCell>
                <mxCell id="121" style="edgeStyle=orthogonalEdgeStyle;rounded=0;orthogonalLoop=1;jettySize=auto;html=1;entryX=1;entryY=0.75;entryDx=0;entryDy=0;strokeColor=#99004D;" edge="1" parent="1" source="110" target="100">
                    <mxGeometry relative="1" as="geometry">
                        <Array as="points">
                            <mxPoint x="532" y="461"/>
                        </Array>
                    </mxGeometry>
                </mxCell>
                <mxCell id="110" value="&lt;b&gt;&lt;font color=&quot;#1a1a1a&quot;&gt;No&lt;/font&gt;&lt;/b&gt;" style="whiteSpace=wrap;html=1;align=center;labelBackgroundColor=none;fillColor=#a20025;strokeColor=#6F0000;fontColor=#ffffff;" vertex="1" parent="1">
                    <mxGeometry x="512.82" y="495" width="38.12" height="30" as="geometry"/>
                </mxCell>
                <mxCell id="116" style="edgeStyle=orthogonalEdgeStyle;rounded=0;orthogonalLoop=1;jettySize=auto;html=1;entryX=1;entryY=0.5;entryDx=0;entryDy=0;strokeColor=#99004D;" edge="1" parent="1" source="114" target="43">
                    <mxGeometry relative="1" as="geometry">
                        <Array as="points">
                            <mxPoint x="809" y="200"/>
                        </Array>
                    </mxGeometry>
                </mxCell>
                <mxCell id="114" value="&lt;b&gt;&lt;font color=&quot;#1a1a1a&quot;&gt;Start&lt;/font&gt;&lt;/b&gt;" style="whiteSpace=wrap;html=1;align=center;labelBackgroundColor=none;fillColor=#6a00ff;strokeColor=#3700CC;fontColor=#ffffff;" vertex="1" parent="1">
                    <mxGeometry x="790" y="300" width="38.12" height="30" as="geometry"/>
                </mxCell>
            </root>
        </mxGraphModel>
    </diagram>
</mxfile>